<svg width="32" height="32" viewBox="0 0 32 32" fill="none" xmlns="http://www.w3.org/2000/svg">
<g clip-path="url(#clip0_895_1237)">
<path d="M0 1.25103C0.0416667 1.15936 0.0833333 1.0677 0.116667 0.967696C0.508333 0.0260289 1.675 -0.298971 2.49167 0.309362C2.625 0.409362 2.74167 0.526029 2.85833 0.642696C7.14167 4.92603 11.4333 9.20936 15.7167 13.501C15.8 13.5844 15.875 13.6927 15.9667 13.801C16.1 13.676 16.1917 13.5927 16.275 13.501C20.5917 9.20103 24.9083 4.88436 29.225 0.567696C29.675 0.117696 30.1917 -0.107304 30.8333 0.0593622C31.9083 0.334362 32.35 1.60103 31.6833 2.50103C31.5833 2.63436 31.4667 2.75103 31.3417 2.8677C27.0667 7.1427 22.7833 11.426 18.5083 15.701C18.4167 15.7927 18.3167 15.8677 18.1917 15.9677C18.3 16.0844 18.3833 16.176 18.4667 16.2594C22.775 20.5677 27.0833 24.876 31.3917 29.1844C31.9083 29.701 32.1417 30.276 31.8833 30.9927C31.6917 31.5427 31.25 31.8177 30.7417 32.001C30.5333 32.001 30.325 32.001 30.1167 32.001C29.65 31.851 29.3 31.526 28.9583 31.1844C24.7417 26.951 20.5 22.7177 16.2667 18.4844C16.1833 18.401 16.0917 18.3177 15.9583 18.1927C15.8583 18.3177 15.7917 18.426 15.7083 18.5094C11.4833 22.7344 7.25 26.9594 3.03333 31.1844C2.69167 31.526 2.35 31.851 1.875 32.001C1.66667 32.001 1.45833 32.001 1.25 32.001C0.625 31.7927 0.2 31.3844 0 30.751C0 30.5427 0 30.3344 0 30.126C0.15 29.6594 0.475 29.3094 0.816667 28.9677C5.05 24.7427 9.28333 20.501 13.5167 16.2677C13.6 16.1844 13.6833 16.0927 13.8167 15.9594C13.6833 15.8594 13.575 15.7844 13.475 15.6844C9.25 11.4594 5.025 7.23436 0.791667 3.00936C0.458333 2.67603 0.15 2.33436 0 1.87603C0 1.6677 0 1.45936 0 1.25103Z" fill="white"/>
<path d="M0 30.75C0.2 31.3833 0.625 31.7917 1.25 32C0.833333 32 0.416667 32 0 32C0 31.5833 0 31.1667 0 30.75Z" fill="white"/>
</g>
<defs>
<clipPath id="clip0_895_1237">
<rect width="32" height="32" fill="white"/>
</clipPath>
</defs>
</svg>
