<svg width="555" height="100" viewBox="0 0 555 100" fill="none" xmlns="http://www.w3.org/2000/svg">
<g filter="url(#filter0_d_895_1268)">
<g filter="url(#filter1_d_895_1268)">
<rect x="5" y="6" width="534.933" height="80" rx="40" fill="#2FCDFF"/>
</g>
<path d="M203.909 34.584L196.629 56H191.678L184.412 34.584H188.997L193.025 47.3281C193.094 47.543 193.206 47.9482 193.362 48.5439C193.518 49.1299 193.675 49.7549 193.831 50.4189C193.997 51.0732 194.109 51.6152 194.168 52.0449C194.226 51.6152 194.329 51.0732 194.475 50.4189C194.632 49.7646 194.783 49.1445 194.929 48.5586C195.086 47.9629 195.198 47.5527 195.266 47.3281L199.324 34.584H203.909ZM220.629 56L219.077 50.9023H211.269L209.716 56H204.824L212.382 34.4961H217.934L225.522 56H220.629ZM217.993 47.0938L216.44 42.1133C216.342 41.7812 216.21 41.3564 216.044 40.8389C215.888 40.3115 215.727 39.7793 215.561 39.2422C215.405 38.6953 215.278 38.2217 215.18 37.8213C215.082 38.2217 214.946 38.7197 214.77 39.3154C214.604 39.9014 214.443 40.458 214.287 40.9854C214.13 41.5127 214.018 41.8887 213.95 42.1133L212.412 47.0938H217.993ZM229.132 56V34.584H233.673V52.25H242.359V56H229.132ZM246.995 56V34.584H251.536V56H246.995ZM275.595 45.0869C275.595 47.499 275.131 49.5156 274.203 51.1367C273.285 52.748 271.952 53.9639 270.204 54.7842C268.456 55.5947 266.352 56 263.891 56H257.826V34.584H264.55C266.796 34.584 268.744 34.9844 270.395 35.7852C272.045 36.5762 273.324 37.7529 274.233 39.3154C275.141 40.8682 275.595 42.792 275.595 45.0869ZM270.878 45.2041C270.878 43.6221 270.644 42.3232 270.175 41.3076C269.716 40.2822 269.032 39.5254 268.124 39.0371C267.226 38.5488 266.112 38.3047 264.784 38.3047H262.367V52.25H264.316C266.532 52.25 268.178 51.6592 269.252 50.4775C270.336 49.2959 270.878 47.5381 270.878 45.2041ZM293.267 56H280.933V34.584H293.267V38.3047H285.474V43.0068H292.725V46.7275H285.474V52.25H293.267V56ZM304.89 34.584C306.833 34.584 308.435 34.8184 309.695 35.2871C310.964 35.7559 311.907 36.4639 312.522 37.4111C313.137 38.3584 313.445 39.5547 313.445 41C313.445 41.9766 313.259 42.8311 312.888 43.5635C312.517 44.2959 312.029 44.916 311.423 45.4238C310.818 45.9316 310.163 46.3467 309.46 46.6689L315.759 56H310.72L305.608 47.7822H303.191V56H298.65V34.584H304.89ZM304.568 38.3047H303.191V44.0908H304.656C306.16 44.0908 307.234 43.8418 307.878 43.3438C308.533 42.8359 308.86 42.0938 308.86 41.1172C308.86 40.1016 308.508 39.3789 307.805 38.9492C307.112 38.5195 306.033 38.3047 304.568 38.3047ZM337.745 56H333.218V43.6074C333.218 43.2656 333.223 42.8457 333.233 42.3477C333.243 41.8398 333.257 41.3223 333.277 40.7949C333.296 40.2578 333.316 39.7744 333.336 39.3447C333.228 39.4717 333.008 39.6914 332.676 40.0039C332.354 40.3066 332.051 40.5801 331.768 40.8242L329.307 42.8018L327.125 40.0771L334.024 34.584H337.745V56ZM355.183 34.4229C356.169 34.4229 357.082 34.5254 357.922 34.7305C358.762 34.9355 359.568 35.2334 360.339 35.624L358.904 39.0225C358.23 38.7197 357.6 38.4854 357.014 38.3193C356.428 38.1436 355.818 38.0557 355.183 38.0557C354.587 38.0557 354.04 38.1436 353.542 38.3193C353.054 38.4951 352.619 38.7539 352.238 39.0957C351.858 39.4375 351.54 39.8574 351.286 40.3555C351.032 40.8535 350.852 41.4297 350.744 42.084H356.648V44.6621H350.525C350.525 44.7305 350.52 44.833 350.51 44.9697C350.5 45.1064 350.495 45.2627 350.495 45.4385C350.495 45.5947 350.495 45.7461 350.495 45.8926C350.505 46.0293 350.515 46.1807 350.525 46.3467H355.725V48.9541H350.774C350.94 49.7256 351.223 50.3799 351.623 50.917C352.033 51.4443 352.561 51.8447 353.205 52.1182C353.85 52.3818 354.607 52.5137 355.476 52.5137C356.247 52.5137 356.965 52.4404 357.629 52.2939C358.293 52.1377 358.918 51.9326 359.504 51.6787V55.4287C358.947 55.7119 358.322 55.9268 357.629 56.0732C356.936 56.2197 356.13 56.293 355.212 56.293C353.65 56.293 352.253 56.0098 351.023 55.4434C349.802 54.8672 348.796 54.0322 348.005 52.9385C347.214 51.8447 346.677 50.5166 346.394 48.9541H344.387V46.3467H346.115C346.106 46.2393 346.091 46.1025 346.071 45.9365C346.062 45.7607 346.057 45.5947 346.057 45.4385C346.057 45.292 346.057 45.1504 346.057 45.0137C346.067 44.8672 346.076 44.75 346.086 44.6621H344.387V42.084H346.335C346.589 40.4824 347.116 39.1104 347.917 37.9678C348.718 36.8252 349.738 35.9512 350.979 35.3457C352.219 34.7305 353.62 34.4229 355.183 34.4229Z" fill="black"/>
</g>
<defs>
<filter id="filter0_d_895_1268" x="1" y="6" width="542.934" height="88" filterUnits="userSpaceOnUse" color-interpolation-filters="sRGB">
<feFlood flood-opacity="0" result="BackgroundImageFix"/>
<feColorMatrix in="SourceAlpha" type="matrix" values="0 0 0 0 0 0 0 0 0 0 0 0 0 0 0 0 0 0 127 0" result="hardAlpha"/>
<feOffset dy="4"/>
<feGaussianBlur stdDeviation="2"/>
<feComposite in2="hardAlpha" operator="out"/>
<feColorMatrix type="matrix" values="0 0 0 0 0 0 0 0 0 0 0 0 0 0 0 0 0 0 0.25 0"/>
<feBlend mode="normal" in2="BackgroundImageFix" result="effect1_dropShadow_895_1268"/>
<feBlend mode="normal" in="SourceGraphic" in2="effect1_dropShadow_895_1268" result="shape"/>
</filter>
<filter id="filter1_d_895_1268" x="0" y="0" width="554.934" height="100" filterUnits="userSpaceOnUse" color-interpolation-filters="sRGB">
<feFlood flood-opacity="0" result="BackgroundImageFix"/>
<feColorMatrix in="SourceAlpha" type="matrix" values="0 0 0 0 0 0 0 0 0 0 0 0 0 0 0 0 0 0 127 0" result="hardAlpha"/>
<feOffset dx="5" dy="4"/>
<feGaussianBlur stdDeviation="5"/>
<feComposite in2="hardAlpha" operator="out"/>
<feColorMatrix type="matrix" values="0 0 0 0 0 0 0 0 0 0 0 0 0 0 0 0 0 0 0.25 0"/>
<feBlend mode="normal" in2="BackgroundImageFix" result="effect1_dropShadow_895_1268"/>
<feBlend mode="normal" in="SourceGraphic" in2="effect1_dropShadow_895_1268" result="shape"/>
</filter>
</defs>
</svg>
